<?xml version="1.0" encoding="iso-8859-1"?>
<!-- Uploaded to: SVG Repo, www.svgrepo.com, Generator: SVG Repo Mixer Tools -->
<!DOCTYPE svg PUBLIC "-//W3C//DTD SVG 1.1//EN" "http://www.w3.org/Graphics/SVG/1.1/DTD/svg11.dtd">
<svg fill="#000000" version="1.1" id="Capa_1" xmlns="http://www.w3.org/2000/svg" xmlns:xlink="http://www.w3.org/1999/xlink" 
	 width="800px" height="800px" viewBox="0 0 37.331 37.331"
	 xml:space="preserve">
<g>
	<g>
		<path d="M27.419,9.191H16.005c-0.337-1.797-1.909-3.158-3.803-3.158H3.875C1.734,6.033,0,7.767,0,9.91v3.156v3.158v11.199
			c0,2.14,1.734,3.875,3.875,3.875h23.543c2.141,0,3.876-1.735,3.876-3.875V13.066C31.295,10.925,29.561,9.191,27.419,9.191z
			 M28.086,21.8c0,0.671-0.543,1.214-1.214,1.214h-9.366c-0.67,0-1.214-0.543-1.214-1.214v-1.977c0-0.669,0.544-1.212,1.214-1.212
			h9.366c0.671,0,1.214,0.543,1.214,1.212V21.8z"/>
		<path d="M34.734,9.587h-2.973c0.612,0.756,0.994,1.703,0.994,2.748v16.228c0,0.146-0.029,0.285-0.044,0.431
			c0.554-0.563,1.006-1.228,1.267-1.938l3.111-13.751C37.84,11.249,36.785,9.587,34.734,9.587z"/>
	</g>
</g>
</svg>